<?xml version="1.0" ?>
<!DOCTYPE svg  PUBLIC '-//W3C//DTD SVG 1.1//EN'  'http://www.w3.org/Graphics/SVG/1.1/DTD/svg11.dtd'>
<!-- Uploaded to: SVG Repo, www.svgrepo.com, Generator: SVG Repo Mixer Tools -->
<svg fill="#000000" width="800px" height="800px" viewBox="0 0 32 32" style="fill-rule:evenodd;clip-rule:evenodd;stroke-linejoin:round;stroke-miterlimit:2;" version="1.1" xml:space="preserve" xmlns="http://www.w3.org/2000/svg" xmlns:serif="http://www.serif.com/" xmlns:xlink="http://www.w3.org/1999/xlink">
<g transform="matrix(1,0,0,1,-192,-384)">
<g transform="matrix(1.42857,0,0,1,-439.143,48)">
<path d="M460,342C460,341.47 459.853,340.961 459.59,340.586C459.327,340.211 458.971,340 458.6,340C455.918,340 450.082,340 447.4,340C447.029,340 446.673,340.211 446.41,340.586C446.147,340.961 446,341.47 446,342C446,346.52 446,357.48 446,362C446,362.53 446.147,363.039 446.41,363.414C446.673,363.789 447.029,364 447.4,364C450.082,364 455.918,364 458.6,364C458.971,364 459.327,363.789 459.59,363.414C459.853,363.039 460,362.53 460,362C460,357.48 460,346.52 460,342Z" style="fill:rgb(144,224,239);"/>
</g>
<path d="M219,390C219,389.204 218.684,388.441 218.121,387.879C217.559,387.316 216.796,387 216,387C212.168,387 203.832,387 200,387C199.204,387 198.441,387.316 197.879,387.879C197.316,388.441 197,389.204 197,390C197,394.52 197,405.48 197,410C197,410.796 197.316,411.559 197.879,412.121C198.441,412.684 199.204,413 200,413C203.832,413 212.168,413 216,413C216.796,413 217.559,412.684 218.121,412.121C218.684,411.559 219,410.796 219,410L219,390ZM217,390L217,410C217,410.265 216.895,410.52 216.707,410.707C216.52,410.895 216.265,411 216,411L200,411C199.735,411 199.48,410.895 199.293,410.707C199.105,410.52 199,410.265 199,410L199,390C199,389.735 199.105,389.48 199.293,389.293C199.48,389.105 199.735,389 200,389L216,389C216.265,389 216.52,389.105 216.707,389.293C216.895,389.48 217,389.735 217,390ZM202,407L209.5,407C210.052,407 210.5,406.552 210.5,406C210.5,405.448 210.052,405 209.5,405L202,405C201.448,405 201,405.448 201,406C201,406.552 201.448,407 202,407ZM202,403L214,403C214.552,403 215,402.552 215,402C215,401.448 214.552,401 214,401L202,401C201.448,401 201,401.448 201,402C201,402.552 201.448,403 202,403ZM202,399L214,399C214.552,399 215,398.552 215,398C215,397.448 214.552,397 214,397L202,397C201.448,397 201,397.448 201,398C201,398.552 201.448,399 202,399ZM202,395L214,395C214.552,395 215,394.552 215,394C215,393.448 214.552,393 214,393L202,393C201.448,393 201,393.448 201,394C201,394.552 201.448,395 202,395Z" style="fill:rgb(25,144,167);"/>
</g>
</svg>